<mxfile host="app.diagrams.net" modified="2022-04-24T06:18:21.878Z" agent="5.0 (Macintosh; Intel Mac OS X 10_15_7) AppleWebKit/537.36 (KHTML, like Gecko) Chrome/99.0.4844.84 Safari/537.36" etag="GHqNpUGIMDlukjaVhWq1" version="17.4.6" type="github">
  <diagram id="X3JW9iFEeciH8gTFLVlA" name="Page-1">
    <mxGraphModel dx="1426" dy="794" grid="1" gridSize="10" guides="1" tooltips="1" connect="1" arrows="1" fold="1" page="1" pageScale="1" pageWidth="827" pageHeight="1169" math="0" shadow="0">
      <root>
        <mxCell id="0" />
        <mxCell id="1" parent="0" />
        <mxCell id="pBkgm0JMsBUBF1bXhFOW-11" style="edgeStyle=orthogonalEdgeStyle;rounded=0;orthogonalLoop=1;jettySize=auto;html=1;entryX=-0.009;entryY=0.406;entryDx=0;entryDy=0;entryPerimeter=0;" parent="1" source="pBkgm0JMsBUBF1bXhFOW-2" target="pBkgm0JMsBUBF1bXhFOW-3" edge="1">
          <mxGeometry relative="1" as="geometry" />
        </mxCell>
        <mxCell id="pBkgm0JMsBUBF1bXhFOW-13" value="request" style="edgeLabel;html=1;align=center;verticalAlign=middle;resizable=0;points=[];" parent="pBkgm0JMsBUBF1bXhFOW-11" vertex="1" connectable="0">
          <mxGeometry x="-0.0981" y="3" relative="1" as="geometry">
            <mxPoint as="offset" />
          </mxGeometry>
        </mxCell>
        <mxCell id="pBkgm0JMsBUBF1bXhFOW-2" value="client" style="rounded=0;whiteSpace=wrap;html=1;fillColor=#647687;fontColor=#ffffff;strokeColor=#314354;" parent="1" vertex="1">
          <mxGeometry x="30" y="230" width="120" height="40" as="geometry" />
        </mxCell>
        <mxCell id="pBkgm0JMsBUBF1bXhFOW-3" value="ResourceManager&lt;br&gt;&lt;br&gt;&lt;br&gt;&lt;br&gt;&lt;br&gt;&lt;br&gt;&lt;br&gt;&lt;br&gt;&lt;br&gt;&lt;br&gt;" style="rounded=1;whiteSpace=wrap;html=1;align=center;fillColor=#fff2cc;strokeColor=#d6b656;" parent="1" vertex="1">
          <mxGeometry x="240" y="180" width="230" height="170" as="geometry" />
        </mxCell>
        <mxCell id="pBkgm0JMsBUBF1bXhFOW-12" style="edgeStyle=orthogonalEdgeStyle;rounded=0;orthogonalLoop=1;jettySize=auto;html=1;entryX=0;entryY=0.75;entryDx=0;entryDy=0;" parent="1" source="pBkgm0JMsBUBF1bXhFOW-4" target="pBkgm0JMsBUBF1bXhFOW-3" edge="1">
          <mxGeometry relative="1" as="geometry" />
        </mxCell>
        <mxCell id="pBkgm0JMsBUBF1bXhFOW-14" value="request" style="edgeLabel;html=1;align=center;verticalAlign=middle;resizable=0;points=[];" parent="pBkgm0JMsBUBF1bXhFOW-12" vertex="1" connectable="0">
          <mxGeometry x="-0.1778" y="4" relative="1" as="geometry">
            <mxPoint x="3" y="-1" as="offset" />
          </mxGeometry>
        </mxCell>
        <mxCell id="pBkgm0JMsBUBF1bXhFOW-4" value="client" style="rounded=0;whiteSpace=wrap;html=1;fillColor=#647687;fontColor=#ffffff;strokeColor=#314354;" parent="1" vertex="1">
          <mxGeometry x="30" y="290" width="120" height="40" as="geometry" />
        </mxCell>
        <mxCell id="pBkgm0JMsBUBF1bXhFOW-5" value="ApplicationManager" style="rounded=0;whiteSpace=wrap;html=1;fillColor=#dae8fc;strokeColor=#6c8ebf;" parent="1" vertex="1">
          <mxGeometry x="260" y="220" width="190" height="30" as="geometry" />
        </mxCell>
        <mxCell id="pBkgm0JMsBUBF1bXhFOW-6" value="Scheduler" style="rounded=0;whiteSpace=wrap;html=1;fillColor=#dae8fc;strokeColor=#6c8ebf;" parent="1" vertex="1">
          <mxGeometry x="260" y="260" width="190" height="30" as="geometry" />
        </mxCell>
        <mxCell id="pBkgm0JMsBUBF1bXhFOW-7" value="NodeManager&lt;br&gt;&lt;br&gt;&lt;br&gt;&lt;br&gt;&lt;br&gt;&lt;br&gt;&lt;br&gt;" style="rounded=1;whiteSpace=wrap;html=1;fillColor=#6d8764;fontColor=#ffffff;strokeColor=#3A5431;" parent="1" vertex="1">
          <mxGeometry x="610" y="70" width="180" height="120" as="geometry" />
        </mxCell>
        <mxCell id="pBkgm0JMsBUBF1bXhFOW-8" value="NodeManager&lt;br&gt;&lt;br&gt;&lt;br&gt;&lt;br&gt;&lt;br&gt;&lt;br&gt;&lt;br&gt;" style="rounded=1;whiteSpace=wrap;html=1;fillColor=#6d8764;fontColor=#ffffff;strokeColor=#3A5431;" parent="1" vertex="1">
          <mxGeometry x="610" y="230" width="180" height="120" as="geometry" />
        </mxCell>
        <mxCell id="pBkgm0JMsBUBF1bXhFOW-9" value="NodeManager&lt;br&gt;&lt;br&gt;&lt;br&gt;&lt;br&gt;&lt;br&gt;&lt;br&gt;&lt;br&gt;" style="rounded=1;whiteSpace=wrap;html=1;fillColor=#6d8764;fontColor=#ffffff;strokeColor=#3A5431;" parent="1" vertex="1">
          <mxGeometry x="610" y="400" width="180" height="120" as="geometry" />
        </mxCell>
        <mxCell id="pBkgm0JMsBUBF1bXhFOW-39" style="edgeStyle=orthogonalEdgeStyle;rounded=0;orthogonalLoop=1;jettySize=auto;html=1;entryX=0.5;entryY=0;entryDx=0;entryDy=0;" parent="1" source="pBkgm0JMsBUBF1bXhFOW-10" target="pBkgm0JMsBUBF1bXhFOW-8" edge="1">
          <mxGeometry relative="1" as="geometry" />
        </mxCell>
        <mxCell id="pBkgm0JMsBUBF1bXhFOW-41" style="edgeStyle=orthogonalEdgeStyle;rounded=0;orthogonalLoop=1;jettySize=auto;html=1;entryX=1;entryY=0.5;entryDx=0;entryDy=0;strokeColor=#000000;" parent="1" source="pBkgm0JMsBUBF1bXhFOW-10" target="pBkgm0JMsBUBF1bXhFOW-9" edge="1">
          <mxGeometry relative="1" as="geometry">
            <Array as="points">
              <mxPoint x="810" y="115" />
              <mxPoint x="810" y="460" />
            </Array>
          </mxGeometry>
        </mxCell>
        <mxCell id="pBkgm0JMsBUBF1bXhFOW-10" value="ApplicationMaster" style="rounded=0;whiteSpace=wrap;html=1;fillColor=#f5f5f5;strokeColor=#666666;fontColor=#333333;" parent="1" vertex="1">
          <mxGeometry x="630" y="100" width="140" height="30" as="geometry" />
        </mxCell>
        <mxCell id="pBkgm0JMsBUBF1bXhFOW-15" value="" style="endArrow=classic;html=1;entryX=0;entryY=0.25;entryDx=0;entryDy=0;exitX=1;exitY=0.5;exitDx=0;exitDy=0;" parent="1" source="pBkgm0JMsBUBF1bXhFOW-5" target="pBkgm0JMsBUBF1bXhFOW-10" edge="1">
          <mxGeometry width="50" height="50" relative="1" as="geometry">
            <mxPoint x="470" y="150" as="sourcePoint" />
            <mxPoint x="520" y="100" as="targetPoint" />
          </mxGeometry>
        </mxCell>
        <mxCell id="pBkgm0JMsBUBF1bXhFOW-16" value="start" style="edgeLabel;html=1;align=center;verticalAlign=middle;resizable=0;points=[];" parent="pBkgm0JMsBUBF1bXhFOW-15" vertex="1" connectable="0">
          <mxGeometry x="0.0649" relative="1" as="geometry">
            <mxPoint as="offset" />
          </mxGeometry>
        </mxCell>
        <mxCell id="pBkgm0JMsBUBF1bXhFOW-17" value="" style="endArrow=classic;html=1;exitX=0;exitY=0.75;exitDx=0;exitDy=0;entryX=1;entryY=0.376;entryDx=0;entryDy=0;entryPerimeter=0;" parent="1" source="pBkgm0JMsBUBF1bXhFOW-10" target="pBkgm0JMsBUBF1bXhFOW-3" edge="1">
          <mxGeometry width="50" height="50" relative="1" as="geometry">
            <mxPoint x="460" y="170" as="sourcePoint" />
            <mxPoint x="470" y="249" as="targetPoint" />
          </mxGeometry>
        </mxCell>
        <mxCell id="pBkgm0JMsBUBF1bXhFOW-18" value="register" style="edgeLabel;html=1;align=center;verticalAlign=middle;resizable=0;points=[];" parent="pBkgm0JMsBUBF1bXhFOW-17" vertex="1" connectable="0">
          <mxGeometry x="0.0489" y="1" relative="1" as="geometry">
            <mxPoint as="offset" />
          </mxGeometry>
        </mxCell>
        <mxCell id="pBkgm0JMsBUBF1bXhFOW-19" value="&lt;font style=&quot;font-size: 14px&quot;&gt;&lt;b&gt;MR2启动图解&lt;/b&gt;&lt;/font&gt;" style="text;html=1;strokeColor=none;fillColor=none;align=center;verticalAlign=middle;whiteSpace=wrap;rounded=0;" parent="1" vertex="1">
          <mxGeometry x="360" y="30" width="120" height="20" as="geometry" />
        </mxCell>
        <mxCell id="pBkgm0JMsBUBF1bXhFOW-20" value="" style="endArrow=classic;html=1;exitX=0.25;exitY=1;exitDx=0;exitDy=0;entryX=0.996;entryY=0.606;entryDx=0;entryDy=0;entryPerimeter=0;" parent="1" source="pBkgm0JMsBUBF1bXhFOW-10" target="pBkgm0JMsBUBF1bXhFOW-3" edge="1">
          <mxGeometry width="50" height="50" relative="1" as="geometry">
            <mxPoint x="600" y="190" as="sourcePoint" />
            <mxPoint x="580" y="245" as="targetPoint" />
          </mxGeometry>
        </mxCell>
        <mxCell id="pBkgm0JMsBUBF1bXhFOW-22" value="为任务申请资源" style="edgeLabel;html=1;align=center;verticalAlign=middle;resizable=0;points=[];" parent="pBkgm0JMsBUBF1bXhFOW-20" vertex="1" connectable="0">
          <mxGeometry x="-0.039" relative="1" as="geometry">
            <mxPoint y="1" as="offset" />
          </mxGeometry>
        </mxCell>
        <mxCell id="pBkgm0JMsBUBF1bXhFOW-23" value="" style="endArrow=classic;html=1;entryX=0.5;entryY=0;entryDx=0;entryDy=0;exitX=0.5;exitY=1;exitDx=0;exitDy=0;dashed=1;" parent="1" source="pBkgm0JMsBUBF1bXhFOW-6" target="pBkgm0JMsBUBF1bXhFOW-27" edge="1">
          <mxGeometry width="50" height="50" relative="1" as="geometry">
            <mxPoint x="420" y="430" as="sourcePoint" />
            <mxPoint x="470" y="380" as="targetPoint" />
          </mxGeometry>
        </mxCell>
        <mxCell id="pBkgm0JMsBUBF1bXhFOW-24" value="" style="endArrow=classic;html=1;entryX=0.5;entryY=0;entryDx=0;entryDy=0;exitX=0.5;exitY=1;exitDx=0;exitDy=0;dashed=1;" parent="1" source="pBkgm0JMsBUBF1bXhFOW-6" target="pBkgm0JMsBUBF1bXhFOW-26" edge="1">
          <mxGeometry width="50" height="50" relative="1" as="geometry">
            <mxPoint x="420" y="420" as="sourcePoint" />
            <mxPoint x="470" y="370" as="targetPoint" />
          </mxGeometry>
        </mxCell>
        <mxCell id="pBkgm0JMsBUBF1bXhFOW-25" value="确定任务运行的节点" style="edgeLabel;html=1;align=center;verticalAlign=middle;resizable=0;points=[];" parent="pBkgm0JMsBUBF1bXhFOW-24" vertex="1" connectable="0">
          <mxGeometry x="-0.2992" relative="1" as="geometry">
            <mxPoint y="17.9" as="offset" />
          </mxGeometry>
        </mxCell>
        <mxCell id="pBkgm0JMsBUBF1bXhFOW-26" value="DataNode" style="rounded=1;whiteSpace=wrap;html=1;fillColor=#1ba1e2;fontColor=#ffffff;strokeColor=#006EAF;" parent="1" vertex="1">
          <mxGeometry x="270" y="440" width="120" height="80" as="geometry" />
        </mxCell>
        <mxCell id="pBkgm0JMsBUBF1bXhFOW-27" value="&lt;span&gt;DataNode&lt;/span&gt;" style="rounded=1;whiteSpace=wrap;html=1;fillColor=#1ba1e2;fontColor=#ffffff;strokeColor=#006EAF;" parent="1" vertex="1">
          <mxGeometry x="450" y="440" width="120" height="80" as="geometry" />
        </mxCell>
        <mxCell id="pBkgm0JMsBUBF1bXhFOW-28" value="&lt;span&gt;DataNode&lt;/span&gt;" style="rounded=1;whiteSpace=wrap;html=1;fillColor=#1ba1e2;fontColor=#ffffff;strokeColor=#006EAF;" parent="1" vertex="1">
          <mxGeometry x="80" y="440" width="120" height="80" as="geometry" />
        </mxCell>
        <mxCell id="pBkgm0JMsBUBF1bXhFOW-30" value="SourceQueue" style="rounded=0;whiteSpace=wrap;html=1;fillColor=#d5e8d4;strokeColor=#82b366;" parent="1" vertex="1">
          <mxGeometry x="380" y="300" width="80" height="20" as="geometry" />
        </mxCell>
        <mxCell id="pBkgm0JMsBUBF1bXhFOW-33" value="ApplicationMaster" style="rounded=0;whiteSpace=wrap;html=1;fillColor=#f5f5f5;strokeColor=#666666;fontColor=#333333;" parent="1" vertex="1">
          <mxGeometry x="630" y="260" width="140" height="30" as="geometry" />
        </mxCell>
        <mxCell id="pBkgm0JMsBUBF1bXhFOW-34" value="" style="endArrow=classic;html=1;dashed=1;entryX=1;entryY=0.5;entryDx=0;entryDy=0;exitX=0;exitY=0.5;exitDx=0;exitDy=0;dashPattern=1 1;strokeColor=#9AC7BF;" parent="1" source="pBkgm0JMsBUBF1bXhFOW-33" target="pBkgm0JMsBUBF1bXhFOW-30" edge="1">
          <mxGeometry width="50" height="50" relative="1" as="geometry">
            <mxPoint x="520" y="380" as="sourcePoint" />
            <mxPoint x="570" y="330" as="targetPoint" />
          </mxGeometry>
        </mxCell>
        <mxCell id="pBkgm0JMsBUBF1bXhFOW-36" value="将请求先放入资源队列" style="edgeLabel;html=1;align=center;verticalAlign=middle;resizable=0;points=[];" parent="pBkgm0JMsBUBF1bXhFOW-34" vertex="1" connectable="0">
          <mxGeometry x="0.0399" y="-1" relative="1" as="geometry">
            <mxPoint x="-1.6499999999999986" y="7.83" as="offset" />
          </mxGeometry>
        </mxCell>
        <mxCell id="pBkgm0JMsBUBF1bXhFOW-35" value="" style="endArrow=classic;html=1;dashed=1;exitX=0.5;exitY=1;exitDx=0;exitDy=0;dashPattern=1 1;strokeColor=#9AC7BF;" parent="1" source="pBkgm0JMsBUBF1bXhFOW-10" edge="1">
          <mxGeometry width="50" height="50" relative="1" as="geometry">
            <mxPoint x="640" y="285" as="sourcePoint" />
            <mxPoint x="460" y="310" as="targetPoint" />
          </mxGeometry>
        </mxCell>
        <mxCell id="pBkgm0JMsBUBF1bXhFOW-40" value="container" style="rounded=0;whiteSpace=wrap;html=1;fillColor=#ffe6cc;strokeColor=#d79b00;" parent="1" vertex="1">
          <mxGeometry x="630" y="300" width="70" height="30" as="geometry" />
        </mxCell>
        <mxCell id="pBkgm0JMsBUBF1bXhFOW-42" value="container" style="rounded=0;whiteSpace=wrap;html=1;fillColor=#ffe6cc;strokeColor=#d79b00;" parent="1" vertex="1">
          <mxGeometry x="620" y="450" width="70" height="30" as="geometry" />
        </mxCell>
        <mxCell id="pBkgm0JMsBUBF1bXhFOW-43" value="" style="endArrow=classic;html=1;exitX=0;exitY=0.5;exitDx=0;exitDy=0;entryX=0.978;entryY=0.959;entryDx=0;entryDy=0;entryPerimeter=0;strokeColor=#B5739D;" parent="1" source="pBkgm0JMsBUBF1bXhFOW-9" target="pBkgm0JMsBUBF1bXhFOW-3" edge="1">
          <mxGeometry width="50" height="50" relative="1" as="geometry">
            <mxPoint x="520" y="400" as="sourcePoint" />
            <mxPoint x="570" y="350" as="targetPoint" />
          </mxGeometry>
        </mxCell>
        <mxCell id="pBkgm0JMsBUBF1bXhFOW-45" value="发送监控报告" style="edgeLabel;html=1;align=center;verticalAlign=middle;resizable=0;points=[];" parent="pBkgm0JMsBUBF1bXhFOW-43" vertex="1" connectable="0">
          <mxGeometry x="0.1483" y="-4" relative="1" as="geometry">
            <mxPoint as="offset" />
          </mxGeometry>
        </mxCell>
        <mxCell id="pBkgm0JMsBUBF1bXhFOW-44" value="" style="endArrow=classic;html=1;exitX=0;exitY=0.75;exitDx=0;exitDy=0;entryX=0.996;entryY=0.812;entryDx=0;entryDy=0;entryPerimeter=0;strokeColor=#B5739D;" parent="1" source="pBkgm0JMsBUBF1bXhFOW-8" target="pBkgm0JMsBUBF1bXhFOW-3" edge="1">
          <mxGeometry width="50" height="50" relative="1" as="geometry">
            <mxPoint x="620" y="470" as="sourcePoint" />
            <mxPoint x="474.94000000000005" y="353.03" as="targetPoint" />
          </mxGeometry>
        </mxCell>
        <mxCell id="pBkgm0JMsBUBF1bXhFOW-46" value="&lt;div&gt;&lt;span&gt;ApplicationMaster为应用程序的0号容器；&lt;/span&gt;&lt;/div&gt;&lt;div&gt;&lt;span&gt;ApplicationMaster通过向RM注册来初始化自身；&lt;/span&gt;&lt;/div&gt;&lt;div&gt;&lt;span&gt;AM计算并申请应用程序需要的资源，如map任务数；&lt;/span&gt;&lt;/div&gt;&lt;div&gt;&lt;span&gt;AM请求RM为map任务分配必要的容器；&lt;/span&gt;&lt;/div&gt;&lt;div&gt;&lt;span&gt;AM在应用程序的整个生命周期中与RM保持联系；&lt;/span&gt;&lt;/div&gt;&lt;div&gt;&lt;span&gt;AM可发送一些必要的kill请求杀死任务；&lt;/span&gt;&lt;/div&gt;&lt;div&gt;AM将结果发送给client, 并将作业信息和日志发送到JobHistoryServer;&lt;/div&gt;&lt;div&gt;任务完成，AM通知RM作业完成，并将自身从RM中注销并关闭。&lt;/div&gt;" style="shape=note;whiteSpace=wrap;html=1;backgroundOutline=1;darkOpacity=0.05;fillColor=#ffff88;strokeColor=#36393d;align=left;" parent="1" vertex="1">
          <mxGeometry x="840" y="20" width="290" height="150" as="geometry" />
        </mxCell>
        <mxCell id="pBkgm0JMsBUBF1bXhFOW-47" value="NodeManager创建请求的容器，并启动容器；&lt;br&gt;NM发送任务的运行状态给 AM;&lt;br&gt;NM将状态和监控状况报告给RM" style="shape=note;whiteSpace=wrap;html=1;backgroundOutline=1;darkOpacity=0.05;fillColor=#ffff88;strokeColor=#36393d;align=left;" parent="1" vertex="1">
          <mxGeometry x="840" y="225" width="290" height="65" as="geometry" />
        </mxCell>
      </root>
    </mxGraphModel>
  </diagram>
</mxfile>
